HIERARCHY
ROOT Pelvis
{
	OFFSET 0.000000 0.000000 0.000000
	CHANNELS 6 Xposition Yposition Zposition Zrotation Yrotation Xrotation 
	JOINT Left_hip
	{
		OFFSET 0.070241 -0.085575 -0.010474
		CHANNELS 3 Zrotation Yrotation Xrotation
		JOINT Left_knee
		{
			OFFSET 0.032125 -0.356873 -0.000555
			CHANNELS 3 Zrotation Yrotation Xrotation
			JOINT Left_ankle
			{
				OFFSET -0.010961 -0.370212 -0.042278
				CHANNELS 3 Zrotation Yrotation Xrotation
				JOINT Left_foot
				{
					OFFSET 0.023322 -0.052281 0.110104
					CHANNELS 3 Zrotation Yrotation Xrotation
					End Site
					{
						OFFSET 0.000000 0.000000 0.000000
					}
				}
			}
		}
	}
	JOINT Right_hip
	{
		OFFSET -0.068518 -0.084320 -0.007402
		CHANNELS 3 Zrotation Yrotation Xrotation
		JOINT Right_knee
		{
			OFFSET -0.037345 -0.364815 -0.003619
			CHANNELS 3 Zrotation Yrotation Xrotation
			JOINT Right_ankle
			{
				OFFSET 0.013394 -0.370006 -0.039954
				CHANNELS 3 Zrotation Yrotation Xrotation
				JOINT Right_foot
				{
					OFFSET -0.019600 -0.045455 0.113223
					CHANNELS 3 Zrotation Yrotation Xrotation
					End Site
					{
						OFFSET 0.000000 0.000000 0.000000
					}
				}
			}
		}
	}
	JOINT Spine1
	{
		OFFSET -0.002404 0.098129 -0.018169
		CHANNELS 3 Zrotation Yrotation Xrotation
		JOINT Spine2
		{
			OFFSET 0.003989 0.127209 -0.001742
			CHANNELS 3 Zrotation Yrotation Xrotation
			JOINT Spine3
			{
				OFFSET 0.001758 0.046641 0.023475
				CHANNELS 3 Zrotation Yrotation Xrotation
				JOINT Neck
				{
					OFFSET -0.003759 0.194901 -0.039982
					CHANNELS 3 Zrotation Yrotation Xrotation
					JOINT Head
					{
						OFFSET 0.003999 0.063756 0.047665
						CHANNELS 3 Zrotation Yrotation Xrotation
						End Site
						{
							OFFSET 0.000000 0.000000 0.000000
						}
					}
				}
				JOINT Left_collar
				{
					OFFSET 0.071816 0.109048 -0.028973
					CHANNELS 3 Zrotation Yrotation Xrotation
					JOINT Left_shoulder
					{
						OFFSET 0.084027 0.032269 -0.006525
						CHANNELS 3 Zrotation Yrotation Xrotation
						JOINT Left_elbow
						{
							OFFSET 0.243854 -0.013992 -0.025905
							CHANNELS 3 Zrotation Yrotation Xrotation
							JOINT Left_wrist
							{
								OFFSET 0.232156 0.008196 -0.000339
								CHANNELS 3 Zrotation Yrotation Xrotation
								JOINT Left_palm
								{
									OFFSET 0.075377 -0.009461 -0.012494
									CHANNELS 3 Zrotation Yrotation Xrotation
									End Site
									{
										OFFSET 0.000000 0.000000 0.000000
									}
								}
							}
						}
					}
				}
				JOINT Right_collar
				{
					OFFSET -0.073768 0.107001 -0.033755
					CHANNELS 3 Zrotation Yrotation Xrotation
					JOINT Right_shoulder
					{
						OFFSET -0.086837 0.032868 -0.009431
						CHANNELS 3 Zrotation Yrotation Xrotation
						JOINT Right_elbow
						{
							OFFSET -0.236446 -0.012544 -0.018747
							CHANNELS 3 Zrotation Yrotation Xrotation
							JOINT Right_wrist
							{
								OFFSET -0.236110 0.006124 -0.004327
								CHANNELS 3 Zrotation Yrotation Xrotation
								JOINT Right_palm
								{
									OFFSET -0.074800 -0.006875 -0.009610
									CHANNELS 3 Zrotation Yrotation Xrotation
									End Site
									{
										OFFSET 0.000000 0.000000 0.000000
									}
								}
							}
						}
					}
				}
			}
		}
	}
}
MOTION
Frames: 14
Frame Time: 0.100000
-0.191995 0.158135 0.441028 175.816314 21.743280 -47.757138 14.507643 -4.638003 -48.838340 -4.739468 10.884671 99.452616 -4.166433 8.716451 26.020950 11.154051 14.884568 -33.002216 -4.610117 3.911789 -30.283691 6.802292 -2.332882 61.606657 4.341461 -1.635330 -1.245110 -24.017476 -1.031301 -9.810111 0.749958 4.577991 30.877226 2.081481 -3.932401 16.956270 1.195974 1.903211 -3.553730 -8.577245 -4.239924 19.219847 7.594817 -1.256945 2.982822 -19.165753 -10.304453 2.015184 -60.725782 -16.463048 23.074154 93.338571 -83.974497 -73.761167 10.611166 -7.262394 -22.694458 -25.510400 -7.007184 -3.803467 18.717847 14.849812 2.513846 54.333372 8.438115 18.663063 -125.063739 80.862779 -113.187499 -8.193600 10.633683 -24.774124 27.042165 7.195377 -1.109683 
-0.186919 0.161019 0.437194 175.663246 22.246221 -48.684896 14.919649 -2.413601 -50.102095 -3.215785 13.559923 103.825008 -5.554824 8.285130 26.534523 12.629972 15.066706 -34.189744 -4.632691 3.381008 -28.160694 6.670368 -2.022947 57.937123 4.194559 -1.332949 0.056084 -24.980151 -0.828939 -9.848668 0.661450 4.869658 31.592071 2.580687 -4.749994 17.845263 1.328795 1.533832 -3.638236 -7.397171 -4.342980 20.075092 6.457917 -1.051355 7.658128 -20.783148 -9.554492 2.874909 -62.089914 -18.304177 22.611392 108.029335 -79.774445 -89.482853 9.150259 -6.126653 -23.211627 -26.548357 -7.836788 -3.968146 21.202391 14.924639 2.705426 55.595197 10.922281 19.764655 -123.433850 78.437307 -111.623294 -6.884690 9.341122 -22.978877 27.051910 8.013847 -1.386041 
-0.183560 0.161785 0.434933 176.099244 22.682341 -47.966116 14.417706 -0.230405 -49.460685 -4.400288 15.908660 104.948895 -6.576704 4.664254 18.624671 12.078153 15.186821 -32.794614 -5.172581 2.682918 -28.795639 6.078081 -2.438080 58.034330 4.897408 -0.466933 0.404689 -24.529970 -1.016110 -9.673710 0.546135 4.411549 32.365058 2.454290 -4.633009 16.974569 0.926873 1.465590 -3.221432 -6.073665 -3.819879 19.836660 5.198810 -1.574623 8.797374 -21.497777 -8.654834 2.301928 -63.785133 -18.188558 23.383143 116.706319 -76.790122 -97.343963 8.601219 -6.581568 -21.610474 -26.075316 -8.420377 -5.569228 22.213112 15.101020 2.955248 56.704200 12.149634 20.866764 -134.130925 77.261729 -121.129353 -7.071988 9.818918 -23.043416 25.464249 7.811761 -0.983483 
-0.185477 0.159155 0.438086 175.958053 24.072558 -46.502852 12.177920 -0.258000 -50.730835 -5.106943 18.918222 108.547608 -3.039660 2.232252 4.070288 9.049865 14.794932 -29.136187 -6.134012 2.018822 -30.068261 5.565464 -2.608648 58.317501 5.936192 -0.242878 0.855800 -23.329728 -0.973997 -9.174957 0.797817 3.987577 32.425952 2.339931 -4.860897 15.395203 0.457009 1.387483 -2.527939 -5.636271 -4.015960 19.589243 4.763144 -1.430279 8.228145 -21.316918 -9.025678 2.054490 -64.636474 -17.059284 23.937308 124.318323 -75.637515 -103.455947 6.217198 -7.208459 -20.006029 -24.776798 -8.627828 -7.937226 21.079361 14.989217 2.713400 57.566554 11.372144 20.478846 -147.021360 76.049132 -132.407618 -6.378899 10.238508 -23.862337 24.310282 7.480619 -1.047772 
-0.186506 0.155143 0.445289 176.647931 24.274260 -44.406545 10.016146 -0.457936 -50.633255 -4.991596 21.376058 110.834475 -0.942693 0.846582 -3.618495 8.166303 14.881956 -27.201575 -5.928424 2.851620 -32.415517 5.204522 -2.825496 60.677557 5.729388 -0.061962 0.853274 -22.009988 -0.856377 -8.957146 0.944752 3.591995 32.634404 2.011608 -4.355844 15.024984 -0.061552 1.570841 -2.930753 -5.012844 -3.459708 18.902404 4.153823 -1.542420 6.926586 -21.349020 -8.801460 1.411644 -65.345479 -16.206471 25.008370 129.665034 -74.516567 -107.638903 4.673472 -8.050694 -18.480421 -23.800733 -8.972628 -9.912440 20.848021 15.023672 2.813724 58.231986 11.322965 20.929763 -148.767014 74.990589 -133.517802 -6.519474 10.754132 -25.034798 23.440882 7.217384 -1.019832 
-0.187244 0.150804 0.454035 177.461795 23.723674 -42.624760 8.389041 1.255536 -46.655981 -5.925422 22.881191 108.398545 -3.211878 -1.644347 2.224397 10.525542 15.083413 -29.791433 -5.686942 2.552600 -32.844506 5.037338 -3.364127 60.032776 5.560479 0.070592 1.874715 -23.422877 -1.023990 -10.230311 1.190205 2.873950 32.937160 1.123987 -3.962759 16.021829 -0.363102 1.754526 -3.259699 -4.318624 -2.425029 17.743366 4.044249 -1.327045 4.736241 -20.916810 -10.094753 1.720009 -64.918705 -16.220290 24.664190 130.059373 -73.185066 -107.950691 5.403857 -8.547290 -18.550054 -23.632361 -9.548237 -10.900212 20.233539 16.754629 3.614433 59.150455 11.764872 21.088374 -145.682154 74.069616 -130.579411 -7.021402 11.132392 -25.076022 22.630342 7.378834 -1.786651 
-0.185392 0.148713 0.460988 177.776117 22.590508 -40.454068 9.636227 4.838887 -45.920054 -3.579233 24.606090 108.437330 -2.368509 -0.418912 2.284638 10.146432 14.558612 -30.281378 -5.490153 2.414799 -35.115869 5.917276 -3.697724 60.563194 6.416706 1.088757 2.576587 -24.382781 -1.264917 -10.494604 0.940763 2.298989 33.211146 0.866536 -3.604111 15.043974 -0.371382 1.745471 -3.420968 -2.966988 -1.087826 15.870218 3.939418 -1.126955 3.716053 -20.471213 -10.305857 2.004359 -63.979686 -14.232055 23.039371 134.557293 -72.963526 -110.841549 3.875317 -8.096547 -16.651147 -22.968226 -9.860848 -12.083692 19.605800 17.372790 4.468630 58.982297 12.192036 20.123056 -147.581437 75.258077 -131.169883 -5.568553 10.655120 -23.477012 22.155331 7.111091 -2.365278 
-0.186005 0.146123 0.465756 179.085664 20.339454 -39.074729 13.527371 9.590514 -47.703830 -2.206858 24.934114 110.866262 -6.351101 -1.993580 9.868761 10.289007 14.873296 -34.071013 -5.177037 2.501240 -36.102588 6.743068 -3.434270 60.946982 6.683589 2.401009 2.359044 -26.273409 -1.782899 -10.632745 0.718209 1.986086 33.853926 0.131429 -3.285427 13.586632 -0.390444 1.676750 -3.438820 -2.400525 1.053410 14.742569 3.551465 -0.851819 3.428660 -20.413902 -9.835450 2.262455 -63.407735 -11.459285 21.525566 136.910074 -72.700020 -113.331227 2.214300 -8.212690 -18.292678 -23.693885 -10.169128 -11.533245 19.488844 17.896905 5.344053 59.192142 12.888146 19.992388 -148.893138 77.171005 -131.787605 -3.679384 10.403796 -23.054649 22.186451 7.049456 -2.453086 
-0.188600 0.146624 0.467452 178.962946 21.339623 -38.443312 14.819304 9.858850 -48.464429 -2.004450 24.042423 114.670923 -4.722463 -2.041970 6.481736 8.018550 14.806263 -34.367334 -6.144106 1.588067 -36.988569 6.744097 -3.712843 61.844419 7.204806 2.638893 1.877844 -26.902749 -2.183132 -10.689603 0.528730 1.463888 34.313954 0.481029 -3.919195 12.696451 -0.045732 1.270840 -2.916643 -3.167064 1.079075 13.750724 3.470875 -0.241307 2.738367 -20.197027 -10.866107 3.079925 -65.441187 -10.110528 20.738442 137.575467 -72.025346 -114.109930 2.445807 -7.400022 -19.775846 -23.890444 -9.687878 -11.118539 18.946101 18.576218 5.514554 60.148755 12.408286 19.527009 -152.187715 77.997501 -134.372751 -3.854486 9.817526 -22.925088 22.730098 6.728107 -2.236391 
-0.188174 0.147506 0.465534 178.076425 23.124620 -38.036064 12.976010 8.513129 -46.973875 -6.151339 23.543100 111.460432 -2.859103 -4.852849 -0.305361 6.144106 15.262150 -32.585187 -5.966800 2.085913 -37.500687 5.753864 -3.275067 61.827487 6.282595 1.327453 0.555958 -24.939245 -1.860745 -9.095765 1.024881 0.918378 35.257632 0.735538 -3.867332 11.978661 0.207824 1.267690 -2.453852 -3.070036 0.198583 13.569842 3.483723 -0.965128 1.311145 -20.399891 -12.686735 3.241180 -66.594102 -9.893273 21.561890 134.700071 -71.590514 -111.410455 5.387391 -7.558855 -20.659281 -23.661268 -9.597841 -11.227113 18.441679 19.383793 5.482029 60.075533 10.705949 18.724940 -152.211422 77.851594 -133.464956 -7.732469 9.677922 -23.890136 22.540733 6.581211 -1.791856 
-0.186436 0.149049 0.463313 177.930687 23.417459 -38.100575 13.733259 9.722403 -48.567983 -3.249736 23.990023 112.839714 -4.969911 -2.504915 5.317432 8.158648 14.897924 -33.955467 -5.356943 3.164851 -37.509786 5.088881 -2.559873 61.808553 6.021046 -0.195840 0.050855 -26.538477 -1.076567 -9.117838 1.435160 1.018098 36.265836 0.267492 -3.710356 11.904009 0.158982 1.531935 -2.333544 -3.506989 -0.068092 14.413398 4.204157 -1.599024 1.091283 -19.822143 -12.660972 3.244282 -65.087158 -10.443887 20.967379 137.805105 -72.633882 -114.339583 6.632464 -8.063022 -21.603431 -24.375717 -9.788615 -10.305600 17.683005 19.684175 5.561336 59.391648 10.616687 18.397778 -155.976196 77.352279 -137.668143 -9.036881 10.081540 -25.001131 23.118907 6.700773 -1.662070 
-0.187085 0.151288 0.462366 177.779934 23.873702 -38.703023 14.780943 10.976922 -49.679306 -3.346660 23.768498 113.391576 -8.235153 -3.146070 12.501543 9.524429 15.256302 -36.481557 -5.987867 2.381040 -37.155836 5.463864 -2.685283 62.203385 6.633251 0.273456 0.378309 -28.737850 -1.691100 -10.114914 1.665702 1.009688 36.951322 -0.054408 -3.837611 11.752442 0.191243 1.484614 -2.016154 -4.124501 -0.199130 15.262662 4.477375 -1.590815 1.199534 -19.787916 -12.747379 3.447703 -64.045145 -10.379267 20.406016 139.735941 -73.516253 -115.394094 8.704193 -8.384036 -21.890291 -24.742535 -9.755895 -9.348094 17.426528 19.775485 5.263701 59.203689 10.717142 18.193530 -160.676723 75.940463 -142.498687 -10.409318 10.747717 -25.018630 23.245970 6.754203 -1.864243 
-0.188215 0.152751 0.462441 177.586907 24.492348 -39.318721 16.443533 13.333831 -49.769271 -3.118048 23.930009 113.550259 -11.900973 -3.367376 20.400583 10.772476 15.771486 -39.831015 -7.022930 1.053281 -36.770543 6.034416 -2.916224 62.720154 7.541681 1.254761 0.928971 -31.109193 -2.247863 -11.044318 1.906743 0.983634 37.269391 -0.146026 -3.762412 11.313440 0.271058 1.465443 -1.719541 -4.206034 -0.202421 16.010551 4.375460 -1.797583 1.669665 -19.852494 -11.941469 3.427074 -64.577696 -10.569027 20.581283 142.484344 -73.943476 -118.225579 8.273846 -8.551931 -22.959350 -25.891202 -10.291020 -8.864186 17.642862 18.859841 5.045569 59.659626 10.506079 18.193603 -159.106439 76.705242 -140.970056 -8.543475 10.598814 -23.643742 23.698645 7.595409 -2.799806 
-0.189887 0.153290 0.462104 177.094253 26.175710 -39.996937 16.960590 14.863468 -48.984056 -3.754907 24.093897 113.227014 -13.970677 -4.112723 23.315252 11.200396 15.879481 -41.287467 -8.065556 -0.143259 -36.042604 5.965269 -2.877872 63.094525 7.843641 1.537461 0.640300 -31.885501 -2.558751 -11.407609 2.357855 0.683154 37.239738 -0.050602 -3.850851 11.324528 0.339606 1.382319 -1.297238 -4.089718 -0.367695 16.200112 4.038383 -2.221611 1.631924 -19.856871 -12.068906 3.577876 -64.493837 -11.027730 20.512754 143.143583 -74.866486 -118.497619 9.638971 -8.590086 -22.736462 -26.206609 -10.627745 -8.773275 17.553997 18.528588 4.942702 59.575907 9.667937 17.718772 -159.334238 76.886213 -141.413407 -9.296613 10.606154 -23.601613 23.750766 8.034406 -3.267474 
